{"glyphs":{":":{"x_min":0,"x_max":175,"ha":175,"o":"m 50 302 q 53 325 71 340 q 89 355 109 355 q 128 355 142 340 q 156 325 153 302 q 150 279 132 264 q 114 250 95 250 q 75 250 61 264 q 47 279 50 302 z m 15 52 q 18 75 36 90 q 54 105 74 105 q 93 105 107 90 q 121 75 118 52 q 115 29 97 14 q 79 0 60 0 q 40 0 26 14 q 12 29 15 52 z"},"$":{"x_min":0,"x_max":567,"ha":567,"o":"m 372 546 l 381 605 q 368 611 353 616 q 338 621 319 623 l 288 398 q 319 387 348 373 q 378 359 400 336 q 422 313 432 277 q 443 241 436 187 q 430 146 412 112 q 393 79 366 54 q 338 29 303 14 q 268 -2 231 -6 l 222 -68 l 138 -68 l 147 -3 q 88 6 45 33 q 2 60 -14 93 l 1 209 l 80 209 l 67 120 q 85 105 107 93 q 129 81 158 75 l 196 343 q 169 352 144 364 q 119 376 102 396 q 84 415 76 444 q 67 473 72 517 q 75 545 87 574 q 99 604 120 630 q 141 655 172 674 q 204 692 246 700 l 255 764 l 339 764 l 330 702 q 362 699 397 687 q 432 675 465 644 l 451 546 z m 353 188 q 357 216 352 236 q 348 257 338 272 q 327 287 311 298 q 295 308 276 316 l 242 75 q 284 84 315 112 q 346 140 353 188 z m 155 514 q 150 480 166 460 q 181 441 208 427 l 234 616 q 199 603 180 576 q 160 548 155 514 z"},"?":{"x_min":0,"x_max":452,"ha":452,"o":"m 140 552 q 123 559 105 566 q 87 572 70 579 q 80 601 97 628 q 114 654 140 677 q 167 700 204 716 q 241 732 292 732 q 333 732 367 716 q 401 701 424 674 q 446 648 456 612 q 467 577 461 537 q 453 481 421 440 q 389 398 338 364 q 323 354 306 344 q 288 333 272 320 q 256 306 244 288 q 233 269 229 242 l 218 164 l 134 164 l 148 261 q 152 293 166 313 q 179 333 198 348 q 216 364 240 378 q 263 391 288 409 q 328 436 350 468 q 371 500 376 537 q 383 586 357 618 q 331 651 281 651 q 225 651 194 626 q 162 601 140 552 z m 152 0 q 132 0 118 14 q 104 29 107 52 q 111 75 129 90 q 147 105 167 105 q 186 105 200 90 q 214 75 210 52 q 207 29 189 14 q 171 0 152 0 z"},"<":{"x_min":0,"x_max":680,"ha":680,"o":"m 533 99 l 517 -14 q 416 49 316 112 q 217 175 116 238 q 234 301 352 364 q 469 427 588 490 l 572 377 q 507 342 442 308 q 377 273 312 238 q 367 203 422 168 q 477 134 533 99 z"},"'":{"x_min":0,"x_max":163,"ha":163,"o":"m 24 472 l 59 720 l 143 720 q 133 657 124 596 q 114 535 104 472 z"},"=":{"x_min":0,"x_max":708,"ha":708,"o":"m 598 193 l 586 112 l 80 112 l 92 193 z m 625 387 l 613 306 l 107 306 l 119 387 z"},"a":{"x_min":0,"x_max":547,"ha":547,"o":"m 62 187 q 68 226 88 262 q 109 298 140 325 q 171 352 210 368 q 249 384 291 384 q 318 384 340 376 q 361 368 377 358 q 393 349 402 340 q 410 331 410 328 q 412 339 415 351 q 418 363 420 375 l 489 375 l 448 79 l 524 79 l 513 0 l 364 0 l 367 20 q 368 25 368 30 q 368 35 369 40 q 367 37 357 29 q 347 21 330 12 q 313 4 289 -2 q 265 -9 236 -9 q 194 -9 159 6 q 124 22 101 49 q 78 76 67 112 q 56 147 62 187 z m 146 188 q 139 139 167 106 q 195 72 247 72 q 273 72 296 81 q 318 90 336 106 q 354 121 366 142 q 377 164 380 188 q 387 238 359 270 q 331 303 279 303 q 253 303 230 294 q 208 286 190 270 q 172 255 160 234 q 149 213 146 188 z"},"L":{"x_min":0,"x_max":571,"ha":571,"o":"m 46 79 l 102 79 l 178 621 l 122 621 l 133 700 l 355 700 l 344 621 l 261 621 l 185 79 l 468 79 l 478 154 l 557 154 l 536 0 l 35 0 z"},"3":{"x_min":0,"x_max":515,"ha":515,"o":"m 154 326 l 327 568 l 216 568 l 210 521 l 131 521 l 149 650 l 478 650 l 301 412 q 332 400 356 380 q 381 361 398 335 q 414 309 420 277 q 427 245 422 209 q 416 164 392 124 q 369 85 335 56 q 301 26 259 9 q 217 -8 172 -8 q 124 -8 86 12 q 48 31 22 63 l 91 120 q 106 98 130 86 q 154 73 184 73 q 212 73 238 84 q 264 95 285 114 q 306 132 320 156 q 335 181 339 209 q 343 237 336 262 q 328 286 312 304 q 296 322 273 332 q 250 343 222 343 q 186 343 154 326 z"},";":{"x_min":0,"x_max":201,"ha":201,"o":"m 89 302 q 93 325 111 340 q 129 355 149 355 q 168 355 182 340 q 196 325 192 302 q 189 279 171 264 q 153 250 134 250 q 114 250 100 264 q 86 279 89 302 z m 144 86 q 115 34 86 -17 q 58 -68 29 -120 l -45 -120 q -18 -68 8 -17 q 33 34 60 86 z"},"J":{"x_min":0,"x_max":311,"ha":311,"o":"m 93 700 l 334 700 l 248 90 q 240 34 216 -9 q 191 -52 155 -82 q 119 -111 73 -127 q 27 -143 -24 -144 l -14 -65 q 20 -63 50 -52 q 81 -41 105 -21 q 129 -1 144 28 q 160 56 165 93 l 240 621 l 82 621 z"},"V":{"x_min":0,"x_max":810,"ha":810,"o":"m 137 700 l 379 700 l 368 621 l 296 621 q 328 512 358 403 q 388 294 420 185 l 424 152 l 438 185 q 500 294 561 402 q 622 511 683 621 l 624 621 l 635 700 l 877 700 l 866 621 l 767 621 q 675 456 583 294 q 491 133 399 -32 q 352 133 306 294 q 260 456 213 621 l 126 621 z"},"\"":{"x_min":0,"x_max":335,"ha":335,"o":"m 178 472 l 213 720 l 296 720 q 286 657 276 596 q 267 535 257 472 z m 45 472 l 80 720 l 163 720 q 153 657 144 596 q 134 535 124 472 z"},"7":{"x_min":0,"x_max":469,"ha":469,"o":"m 472 650 l 89 0 l -5 0 l 331 568 l 127 568 l 120 521 l 41 521 l 59 650 z"},"S":{"x_min":0,"x_max":478,"ha":478,"o":"m 35 93 l 51 209 l 130 209 l 117 120 q 141 100 175 86 q 209 71 254 71 q 280 71 305 78 q 330 86 350 100 q 371 115 385 137 q 399 159 403 188 q 409 227 398 252 q 388 277 368 293 q 347 309 319 319 q 291 329 262 338 q 233 348 205 360 q 177 371 157 390 q 137 410 126 440 q 116 470 122 517 q 126 550 140 583 q 155 616 182 643 q 209 670 250 687 q 290 704 345 704 q 363 704 384 702 q 404 700 426 694 q 448 688 471 676 q 494 664 515 644 l 501 546 l 422 546 l 431 605 q 413 613 388 619 q 364 625 334 625 q 276 625 244 592 q 211 559 205 514 q 201 484 212 466 q 224 447 245 434 q 266 422 294 413 q 322 404 352 394 q 381 383 408 368 q 435 354 455 330 q 475 307 484 272 q 493 238 486 187 q 480 142 458 106 q 436 70 404 44 q 373 19 333 6 q 293 -8 251 -8 q 213 -8 178 0 q 144 9 116 23 q 87 37 66 55 q 45 73 35 93 z"},"}":{"x_min":0,"x_max":320,"ha":320,"o":"m 359 337 l 347 256 q 323 255 306 242 q 289 228 277 208 q 265 188 258 164 q 252 141 249 121 l 228 -31 q 222 -78 209 -102 q 196 -126 178 -136 q 160 -147 138 -148 q 117 -149 93 -149 l 30 -149 l 42 -68 l 86 -68 q 101 -68 112 -64 q 122 -60 130 -49 q 137 -38 142 -18 q 147 3 152 35 l 170 164 q 174 194 184 216 q 194 239 206 255 q 218 271 231 282 q 244 292 254 298 q 245 304 236 314 q 226 325 218 341 q 211 357 208 380 q 204 402 208 433 l 226 562 q 230 594 231 614 q 232 634 228 646 q 223 657 214 661 q 204 665 189 665 l 145 665 l 156 746 l 219 746 q 242 746 264 745 q 285 744 300 734 q 315 723 321 699 q 327 675 321 628 l 299 472 q 296 452 296 428 q 296 405 302 385 q 308 365 322 352 q 335 338 359 337 z"},"Z":{"x_min":0,"x_max":629,"ha":629,"o":"m 628 242 l 594 0 l 35 0 l 46 80 l 550 621 l 138 621 l 154 735 l 237 735 l 232 700 l 663 700 l 652 621 l 148 80 l 526 80 l 549 242 z"},"x":{"x_min":0,"x_max":526,"ha":526,"o":"m 87 375 l 309 375 l 298 296 l 275 296 l 310 237 l 360 296 l 333 296 l 344 375 l 543 375 l 532 296 l 459 296 l 353 173 q 367 149 381 126 q 395 102 410 79 l 502 79 l 491 0 l 269 0 l 280 79 l 305 79 q 296 93 288 106 q 280 119 272 133 q 261 119 248 106 q 236 93 225 79 l 245 79 l 234 0 l 35 0 l 46 79 l 123 79 q 149 110 176 140 q 204 171 231 202 q 217 225 203 249 q 189 273 175 296 l 76 296 z"},")":{"x_min":0,"x_max":400,"ha":400,"o":"m 312 288 q 301 213 278 145 q 254 77 222 19 q 191 -39 155 -86 q 119 -134 83 -167 q 66 -162 48 -156 q 30 -151 13 -146 q 46 -113 80 -68 q 114 -23 144 32 q 173 87 195 151 q 217 215 227 286 q 237 357 233 421 q 229 485 215 540 q 201 595 180 640 q 158 685 134 718 q 153 724 172 730 q 191 737 210 743 q 237 710 260 662 q 283 615 298 557 q 313 499 318 431 q 322 363 312 288 z"},"&":{"x_min":0,"x_max":700,"ha":700,"o":"m 421 375 l 600 375 l 589 294 l 494 294 l 488 254 q 487 246 486 234 q 484 221 482 206 q 480 190 476 174 q 473 158 468 145 l 526 24 l 455 -19 l 416 63 q 384 30 341 10 q 298 -9 250 -9 q 208 -9 174 6 q 140 22 116 49 q 93 76 82 112 q 72 147 78 188 q 83 224 100 256 q 116 288 142 314 q 167 339 199 356 q 231 374 266 380 l 212 496 q 198 526 196 558 q 193 590 202 620 q 211 651 234 678 q 256 706 292 726 q 323 743 352 746 q 382 750 409 744 q 436 739 460 728 q 483 717 500 705 l 458 640 q 449 646 434 654 q 420 661 404 665 q 387 669 370 669 q 353 669 338 660 q 293 634 283 594 q 273 554 292 515 l 407 273 l 407 276 z m 161 188 q 154 139 182 106 q 210 72 262 72 q 300 72 331 91 q 362 110 379 141 l 303 303 q 247 303 208 272 q 169 242 161 188 z"},"_":{"x_min":0,"x_max":600,"ha":600,"o":"m 494 0 l 94 0 l 105 81 l 505 81 z"},"v":{"x_min":0,"x_max":584,"ha":584,"o":"m 90 375 l 312 375 l 301 296 l 249 296 q 269 252 287 208 q 305 164 313 120 q 333 164 362 208 q 392 252 424 296 l 364 296 l 375 375 l 604 375 l 593 296 l 510 296 q 456 215 402 136 q 347 57 293 -23 q 260 57 228 136 q 195 216 163 296 l 79 296 z"},"O":{"x_min":0,"x_max":786,"ha":786,"o":"m 85 349 q 95 422 132 488 q 169 553 224 602 q 280 651 349 680 q 418 708 492 708 q 565 708 626 680 q 688 651 730 602 q 772 553 792 488 q 811 422 801 349 q 790 275 752 210 q 715 145 660 96 q 604 48 534 20 q 465 -8 392 -8 q 318 -8 257 20 q 196 48 154 96 q 112 145 93 210 q 74 275 85 349 z m 168 349 q 160 291 174 240 q 189 190 221 152 q 253 115 300 93 q 347 71 404 71 q 461 71 514 93 q 567 115 610 152 q 652 190 681 240 q 710 291 718 349 q 726 407 712 458 q 697 508 664 546 q 632 584 586 606 q 539 628 482 628 q 425 628 372 606 q 319 584 276 546 q 233 508 204 458 q 176 407 168 349 z"},"(":{"x_min":0,"x_max":424,"ha":424,"o":"m 115 291 q 125 366 148 434 q 172 502 204 560 q 235 618 271 666 q 307 713 343 746 q 360 740 378 734 q 396 729 413 723 q 380 690 346 645 q 312 600 282 545 q 253 490 231 426 q 209 362 199 291 q 189 220 193 156 q 197 92 211 37 q 225 -18 246 -63 q 268 -108 292 -141 q 273 -147 254 -152 q 235 -158 216 -164 q 189 -131 166 -84 q 143 -36 128 22 q 113 80 108 148 q 104 216 115 291 z"},"C":{"x_min":0,"x_max":610,"ha":610,"o":"m 573 546 l 582 607 q 535 629 481 629 q 424 629 371 607 q 318 585 276 546 q 233 508 204 457 q 176 406 168 349 q 160 292 174 241 q 189 190 221 152 q 253 115 300 93 q 346 71 403 71 q 476 71 545 108 l 581 42 q 537 19 490 6 q 443 -8 392 -8 q 318 -8 257 20 q 196 48 154 96 q 112 145 93 210 q 74 275 85 349 q 95 423 132 488 q 170 554 225 602 q 280 651 349 680 q 418 708 492 708 q 543 708 587 695 q 631 682 668 658 l 652 546 z"},"W":{"x_min":0,"x_max":1178,"ha":1178,"o":"m 137 700 l 379 700 l 368 621 l 296 621 q 328 512 358 403 q 388 294 420 185 l 424 152 q 442 197 466 242 q 490 286 516 330 q 542 375 568 419 q 595 463 619 506 q 611 535 602 564 q 594 592 586 621 l 494 621 l 505 700 l 747 700 l 736 621 l 669 621 q 701 512 731 403 q 761 294 793 185 l 797 152 l 811 185 q 873 294 934 402 q 995 511 1056 621 l 992 621 l 1003 700 l 1245 700 l 1234 621 l 1140 621 q 1048 456 956 294 q 864 133 772 -32 l 653 385 l 648 420 q 626 364 596 306 q 566 249 532 192 q 498 135 464 78 q 429 22 399 -32 q 352 133 306 294 q 260 456 213 621 l 126 621 z"},"A":{"x_min":0,"x_max":788,"ha":788,"o":"m 46 79 l 128 79 q 220 244 312 406 q 404 567 496 732 q 543 567 589 406 q 635 244 682 79 l 764 79 l 753 0 l 531 0 l 542 79 l 598 79 q 584 129 570 178 q 556 227 542 277 l 322 277 l 211 79 l 268 79 l 257 0 l 35 0 z m 475 515 l 470 548 q 469 546 466 541 q 464 536 462 530 q 458 523 455 515 q 439 486 423 458 q 409 434 394 406 q 380 378 368 356 l 520 356 z"},"f":{"x_min":0,"x_max":336,"ha":336,"o":"m 46 79 l 107 79 l 137 294 l 76 294 l 87 375 l 147 375 l 167 517 q 175 573 200 616 q 224 659 260 688 q 297 718 343 734 q 389 749 441 751 l 430 672 q 360 668 310 628 q 261 588 250 514 l 230 375 l 348 375 l 337 294 l 219 294 l 189 79 l 268 79 l 257 0 l 35 0 z"},"Q":{"x_min":0,"x_max":808,"ha":808,"o":"m 168 349 q 160 292 174 241 q 189 190 221 152 q 253 115 300 93 q 346 71 403 71 q 460 71 513 93 q 566 115 609 152 q 652 190 681 241 q 710 292 718 349 q 726 406 711 457 q 696 508 664 546 q 632 585 585 607 q 538 629 481 629 q 424 629 371 607 q 318 585 276 546 q 233 508 204 457 q 176 406 168 349 z m 85 349 q 95 423 132 488 q 170 554 225 602 q 280 651 349 680 q 418 708 492 708 q 566 708 628 680 q 689 651 731 602 q 773 554 792 488 q 811 423 801 349 q 789 268 746 198 q 702 128 638 79 l 785 79 l 774 0 l 467 0 q 427 -8 392 -8 q 318 -8 257 20 q 196 48 154 96 q 112 145 93 210 q 74 275 85 349 z"},"w":{"x_min":0,"x_max":830,"ha":830,"o":"m 636 375 l 850 375 l 839 296 l 763 296 q 712 215 660 136 q 609 57 558 -23 l 459 246 l 286 -23 q 256 57 226 136 q 197 216 168 296 l 79 296 l 90 375 l 297 375 l 286 296 l 251 296 q 267 252 282 208 q 297 165 306 120 q 322 154 342 186 q 362 219 382 252 q 389 263 396 274 q 402 285 409 296 l 358 296 l 369 375 l 591 375 l 580 296 l 523 296 q 539 252 554 208 q 569 165 578 120 q 599 165 626 208 q 652 252 681 296 l 625 296 z"},"-":{"x_min":0,"x_max":300,"ha":300,"o":"m 47 147 l 58 228 l 242 228 l 231 147 z"},"E":{"x_min":0,"x_max":571,"ha":571,"o":"m 46 79 l 102 79 l 178 621 l 122 621 l 133 700 l 620 700 l 598 546 l 519 546 l 530 621 l 261 621 l 229 392 l 538 392 l 526 313 l 217 313 l 185 79 l 468 79 l 478 154 l 557 154 l 536 0 l 35 0 z"},"s":{"x_min":0,"x_max":332,"ha":332,"o":"m 138 120 l 133 81 q 144 76 156 74 q 167 73 184 73 q 185 73 192 74 q 198 74 206 78 q 215 81 222 88 q 230 95 233 109 q 237 127 227 136 q 217 146 200 152 q 184 159 164 166 q 143 172 126 184 q 110 195 101 216 q 92 237 97 272 q 101 303 116 324 q 131 345 151 358 q 171 372 193 378 q 215 384 232 384 q 242 384 256 382 q 270 380 284 375 q 299 370 312 362 q 326 354 335 342 l 322 255 l 248 255 l 255 298 q 240 303 225 303 q 203 303 192 294 q 180 284 180 268 q 181 256 192 248 q 204 241 221 234 q 238 227 256 218 q 275 209 290 196 q 305 182 313 162 q 321 141 317 110 q 315 96 307 76 q 299 56 282 37 q 266 18 239 5 q 212 -8 172 -8 q 135 -8 102 2 q 69 11 52 33 l 64 120 z"},">":{"x_min":0,"x_max":650,"ha":650,"o":"m 80 -14 l 96 99 q 161 134 226 168 q 291 203 357 238 q 301 273 246 308 q 191 342 135 377 l 151 490 q 252 427 352 364 q 451 301 553 238 q 434 175 316 112 q 199 49 80 -14 z"},"l":{"x_min":0,"x_max":292,"ha":292,"o":"m 46 79 l 122 79 l 205 671 l 139 671 l 150 750 l 299 750 l 205 79 l 268 79 l 257 0 l 35 0 z"},"8":{"x_min":0,"x_max":510,"ha":510,"o":"m 204 498 q 199 466 218 445 q 237 424 268 424 q 300 424 324 445 q 349 466 354 498 q 359 530 340 554 q 322 577 290 577 q 275 577 260 570 q 246 564 234 553 q 222 542 214 528 q 206 514 204 498 z m 105 209 q 101 181 108 156 q 115 132 130 114 q 145 95 168 84 q 190 73 217 73 q 245 73 271 84 q 297 95 318 114 q 340 132 354 156 q 368 181 372 209 q 376 236 369 260 q 362 284 347 302 q 332 320 310 331 q 287 342 260 343 q 231 343 204 332 q 178 322 158 304 q 137 286 123 262 q 109 237 105 209 z m 19 209 q 27 267 62 314 q 96 362 147 391 q 130 411 122 438 q 114 466 119 498 q 123 531 140 560 q 156 589 180 611 q 205 633 236 646 q 266 658 299 658 q 332 658 360 646 q 387 633 406 611 q 424 589 432 560 q 441 531 437 498 q 432 466 416 438 q 401 411 378 391 q 420 362 442 314 q 463 267 455 209 q 449 164 426 124 q 403 85 369 56 q 335 26 293 9 q 251 -8 206 -8 q 161 -8 124 9 q 87 26 62 56 q 36 85 24 124 q 13 164 19 209 z"},"\\":{"x_min":0,"x_max":385,"ha":385,"o":"m 147 736 q 190 546 232 358 q 275 171 318 -19 l 224 -19 q 181 171 138 358 q 96 546 53 736 z"},"e":{"x_min":0,"x_max":450,"ha":450,"o":"m 278 303 q 227 303 191 272 q 155 242 146 196 q 196 213 245 230 q 294 248 343 265 q 332 282 316 292 q 299 303 278 303 z m 442 218 q 371 193 300 168 q 229 143 157 118 q 169 97 192 84 q 215 72 246 72 q 269 72 290 80 q 310 89 326 104 q 337 89 348 74 q 358 59 369 44 q 340 19 306 5 q 273 -9 235 -9 q 193 -9 159 6 q 125 22 102 49 q 78 76 67 112 q 56 147 62 188 q 68 228 88 264 q 109 300 140 326 q 171 353 210 368 q 248 384 290 384 q 321 384 348 372 q 374 359 394 337 q 413 315 426 284 q 438 254 442 218 z"},"b":{"x_min":0,"x_max":547,"ha":547,"o":"m 47 79 l 123 79 l 206 671 l 140 671 l 151 750 l 300 750 l 246 362 q 242 354 238 346 q 235 339 231 331 q 233 334 245 343 q 257 352 275 361 q 293 370 316 377 q 340 384 366 384 q 408 384 442 368 q 477 353 500 326 q 524 299 534 264 q 545 228 539 188 q 533 148 512 112 q 492 76 462 49 q 431 22 392 6 q 353 -9 311 -9 q 282 -9 260 -2 q 237 4 222 12 q 207 21 199 29 q 191 37 190 40 q 189 35 189 30 q 189 25 188 20 l 185 0 l 36 0 z m 455 188 q 462 238 434 270 q 406 303 354 303 q 328 303 306 294 q 283 286 265 270 q 247 255 236 234 q 224 213 221 188 q 214 139 242 106 q 270 72 322 72 q 348 72 370 81 q 393 90 411 106 q 429 121 440 142 q 452 164 455 188 z"},"%":{"x_min":0,"x_max":726,"ha":726,"o":"m 458 111 q 455 91 466 78 q 476 65 496 65 q 516 65 530 78 q 543 91 546 111 q 549 131 538 144 q 528 156 508 156 q 488 156 474 144 q 461 131 458 111 z m 484 -16 q 458 -16 436 -6 q 414 4 399 21 q 384 38 377 61 q 370 84 374 111 q 378 137 392 160 q 405 183 424 200 q 444 217 469 227 q 494 237 520 237 q 546 237 568 227 q 590 217 605 200 q 620 183 627 160 q 634 137 630 111 q 626 84 612 61 q 599 38 579 21 q 559 4 534 -6 q 510 -16 484 -16 z m 193 389 q 190 369 200 356 q 211 343 231 343 q 251 343 264 356 q 278 369 281 389 q 284 409 274 422 q 263 434 243 434 q 223 434 210 422 q 196 409 193 389 z m 219 262 q 193 262 171 272 q 149 282 134 299 q 119 316 112 339 q 105 362 109 389 q 113 415 126 438 q 140 461 160 478 q 179 495 204 505 q 229 515 255 515 q 281 515 303 505 q 325 495 340 478 q 355 461 362 438 q 369 415 365 389 q 361 362 348 339 q 334 316 314 299 q 294 282 270 272 q 245 262 219 262 z m 138 0 q 231 126 322 250 q 414 374 507 500 l 598 500 q 505 374 414 250 q 322 126 229 0 z"},"m":{"x_min":0,"x_max":870,"ha":870,"o":"m 624 79 l 700 79 l 721 234 q 723 261 708 280 q 694 300 656 302 q 630 302 605 293 q 580 284 560 268 q 540 252 526 230 q 512 208 508 182 l 494 79 l 557 79 l 546 0 l 324 0 l 335 79 l 411 79 l 432 234 q 434 261 420 280 q 405 300 367 302 q 341 302 316 293 q 291 284 271 268 q 251 252 237 230 q 223 208 219 182 l 205 79 l 268 79 l 257 0 l 35 0 l 46 79 l 122 79 l 152 296 l 86 296 l 97 375 l 236 375 l 235 366 q 233 342 232 322 q 232 303 230 279 q 258 327 304 354 q 350 382 407 384 q 462 384 492 356 q 522 329 521 284 q 550 330 596 356 q 641 382 696 384 q 755 384 785 353 q 815 322 810 272 l 783 79 l 846 79 l 835 0 l 613 0 z"},"#":{"x_min":0,"x_max":571,"ha":571,"o":"m 229 371 q 223 345 216 320 q 210 295 203 269 l 303 269 q 310 295 316 320 q 323 345 329 371 z m 233 0 q 245 48 258 94 q 270 140 282 188 l 182 188 q 170 140 158 94 q 145 48 133 0 l 49 0 q 61 48 74 94 q 86 140 98 188 l 6 188 l 27 269 l 119 269 q 126 295 132 320 q 139 345 145 371 l 54 371 q 59 391 64 412 q 69 432 74 452 l 166 452 q 179 500 192 548 q 204 595 217 643 l 301 643 q 288 595 276 548 q 263 500 250 452 l 350 452 q 363 500 376 548 q 388 595 401 643 l 485 643 q 472 595 460 548 q 447 500 434 452 l 536 452 q 531 432 526 412 q 521 391 516 371 l 413 371 q 407 345 400 320 q 394 295 387 269 l 489 269 l 468 188 l 366 188 q 354 140 342 94 q 329 48 317 0 z"},",":{"x_min":0,"x_max":200,"ha":200,"o":"m 177 86 q 148 34 120 -17 q 91 -68 62 -120 l -12 -120 q 14 -68 40 -17 q 66 34 93 86 z"},"n":{"x_min":0,"x_max":580,"ha":580,"o":"m 334 79 l 411 79 l 432 234 q 434 261 420 280 q 405 300 367 302 q 341 302 316 293 q 291 284 271 268 q 251 252 237 230 q 223 208 219 182 l 205 79 l 268 79 l 257 0 l 35 0 l 46 79 l 122 79 l 152 296 l 86 296 l 97 375 l 236 375 l 235 366 q 233 342 232 322 q 232 303 230 279 q 257 327 305 356 q 353 384 407 384 q 466 384 496 353 q 526 322 521 272 l 494 79 l 556 79 l 545 0 l 323 0 z"},"h":{"x_min":0,"x_max":580,"ha":580,"o":"m 334 79 l 411 79 l 432 234 q 434 261 420 280 q 405 300 367 302 q 341 302 316 293 q 291 284 271 268 q 251 252 237 230 q 223 208 219 182 l 205 79 l 268 79 l 257 0 l 35 0 l 46 79 l 122 79 l 205 671 l 129 671 l 140 750 l 299 750 l 239 324 l 230 279 q 259 328 304 354 q 350 381 407 384 q 466 384 496 353 q 526 322 521 272 l 494 79 l 556 79 l 545 0 l 323 0 z"},"z":{"x_min":0,"x_max":435,"ha":435,"o":"m 419 138 l 400 0 l 35 0 l 46 81 q 81 109 112 136 q 143 162 174 188 q 204 214 235 241 q 266 268 301 296 l 88 296 l 104 410 l 178 410 l 173 375 l 429 375 l 418 294 q 382 266 351 240 q 320 213 290 187 q 260 161 229 135 q 198 109 163 81 l 337 81 l 345 138 z"},"B":{"x_min":0,"x_max":542,"ha":542,"o":"m 46 79 l 91 79 l 167 621 l 122 621 l 133 700 l 361 700 q 410 700 449 690 q 488 680 514 659 q 540 638 551 604 q 562 571 555 525 q 547 463 511 416 q 475 369 412 352 q 440 346 464 332 q 488 318 504 296 q 521 274 529 245 q 537 216 532 180 q 526 135 502 102 q 478 68 444 46 q 409 23 366 12 q 324 0 281 0 l 35 0 z m 206 313 l 174 79 l 285 79 q 316 79 344 86 q 372 93 394 108 q 417 122 432 143 q 447 164 451 193 q 455 224 444 247 q 434 270 413 284 q 392 299 363 306 q 334 313 303 313 z m 250 621 l 218 392 l 326 392 q 385 392 424 425 q 462 458 470 512 q 478 571 446 596 q 414 621 356 621 z"},"K":{"x_min":0,"x_max":686,"ha":686,"o":"m 440 79 l 492 79 q 445 150 399 220 q 353 291 308 363 l 237 304 q 229 247 222 192 q 214 136 206 79 l 288 79 l 277 0 l 35 0 l 46 79 l 123 79 l 199 621 l 122 621 l 133 700 l 355 700 l 344 621 l 282 621 l 254 426 q 252 418 250 410 q 249 402 247 394 l 269 417 l 512 621 l 475 621 l 486 700 l 708 700 l 697 621 l 614 621 l 370 416 q 425 331 480 248 q 534 164 590 79 l 662 79 l 651 0 l 429 0 z"},"R":{"x_min":0,"x_max":576,"ha":576,"o":"m 46 79 l 91 79 l 167 621 l 122 621 l 133 700 l 343 700 q 377 700 417 690 q 457 679 490 656 q 522 633 541 597 q 560 561 553 510 q 542 435 498 384 q 453 334 379 318 l 458 79 l 552 79 l 541 0 l 395 0 l 291 312 l 248 312 l 206 312 l 174 79 l 288 79 l 277 0 l 35 0 z m 218 392 l 305 392 q 349 392 379 404 q 409 415 428 432 q 448 449 458 470 q 467 491 470 510 q 473 532 464 552 q 456 572 438 588 q 421 603 395 612 q 369 621 338 621 l 250 621 z"},"T":{"x_min":0,"x_max":623,"ha":623,"o":"m 196 79 l 282 79 l 358 621 l 201 621 l 190 546 l 111 546 l 133 700 l 686 700 l 664 546 l 585 546 l 596 621 l 441 621 l 365 79 l 438 79 l 427 0 l 185 0 z"},"P":{"x_min":0,"x_max":517,"ha":517,"o":"m 46 79 l 91 79 l 167 621 l 122 621 l 133 700 l 343 700 q 377 700 417 690 q 457 679 490 656 q 522 633 541 597 q 560 561 553 510 q 540 419 478 366 q 417 312 315 312 l 206 312 l 174 79 l 288 79 l 277 0 l 35 0 z m 218 392 l 305 392 q 349 392 379 404 q 409 415 428 432 q 448 449 458 470 q 467 491 470 510 q 473 532 464 552 q 456 572 438 588 q 421 603 395 612 q 369 621 338 621 l 250 621 z"},"|":{"x_min":0,"x_max":271,"ha":271,"o":"m 91 -232 l 221 700 l 305 700 l 175 -232 z"},"t":{"x_min":0,"x_max":335,"ha":335,"o":"m 205 619 l 288 619 l 254 375 l 352 375 l 341 294 l 243 294 l 213 79 l 288 79 l 277 0 l 119 0 l 160 294 l 76 294 l 87 375 l 171 375 z"},"M":{"x_min":0,"x_max":976,"ha":976,"o":"m 927 700 l 1039 700 l 1028 621 l 941 621 l 865 79 l 952 79 l 941 0 l 699 0 l 710 79 l 782 79 l 837 470 q 839 478 840 486 q 842 494 844 502 q 835 491 826 479 q 816 467 806 456 q 734 371 657 290 q 580 208 505 125 l 286 475 l 272 502 q 272 494 272 486 q 271 478 271 470 l 216 79 l 288 79 l 277 0 l 35 0 l 46 79 l 133 79 l 209 621 l 122 621 l 133 700 l 245 700 q 315 589 384 478 q 453 368 524 257 q 625 368 725 478 q 825 589 927 700 z"},"g":{"x_min":0,"x_max":547,"ha":547,"o":"m 454 375 l 599 375 l 588 296 l 512 296 l 462 -60 q 456 -100 436 -134 q 416 -169 386 -194 q 355 -220 317 -235 q 279 -250 237 -250 q 192 -250 152 -230 q 113 -211 86 -190 l 150 -122 q 168 -137 193 -150 q 218 -164 247 -164 q 273 -164 296 -155 q 319 -146 336 -130 q 354 -115 366 -94 q 378 -72 381 -47 l 390 20 q 393 24 396 28 q 398 33 401 38 q 397 33 386 26 q 375 18 358 10 q 341 3 319 -2 q 297 -8 270 -8 q 228 -8 193 8 q 158 23 135 50 q 112 76 101 112 q 90 147 96 187 q 102 226 122 262 q 143 298 174 325 q 205 352 244 368 q 283 384 325 384 q 352 384 374 376 q 395 368 411 358 q 427 349 436 340 q 444 331 444 328 q 446 339 449 351 q 452 363 454 375 z m 180 188 q 173 139 201 106 q 229 72 281 72 q 307 72 330 81 q 352 90 370 106 q 388 121 400 142 q 411 164 414 188 q 421 238 393 270 q 365 303 313 303 q 287 303 264 294 q 242 286 224 270 q 206 255 194 234 q 183 213 180 188 z"},"j":{"x_min":0,"x_max":212,"ha":212,"o":"m 59 375 l 201 375 l 148 0 q 140 -61 112 -106 q 85 -152 44 -181 l -5 -119 q 23 -99 42 -69 q 60 -39 65 3 l 107 296 l 48 296 z m 131 520 q 134 543 152 558 q 170 573 190 573 q 209 573 223 558 q 237 543 234 520 q 231 497 213 482 q 195 468 176 468 q 156 468 142 482 q 128 497 131 520 z"},"i":{"x_min":0,"x_max":292,"ha":292,"o":"m 46 79 l 116 79 l 146 296 l 76 296 l 87 375 l 240 375 l 199 79 l 268 79 l 257 0 l 35 0 z m 169 520 q 172 543 190 558 q 208 573 228 573 q 247 573 261 558 q 275 543 272 520 q 268 497 250 482 q 232 468 213 468 q 193 468 179 482 q 165 497 169 520 z"},"y":{"x_min":0,"x_max":617,"ha":617,"o":"m 103 -171 l 193 -171 q 220 -128 248 -85 q 275 -42 303 0 q 276 75 249 148 q 222 221 195 296 l 111 296 l 122 375 l 344 375 l 333 296 l 280 296 q 302 241 323 186 q 344 130 355 74 q 381 130 418 186 q 454 241 491 296 l 429 296 l 440 375 l 669 375 l 658 296 l 576 296 q 501 178 426 62 q 351 -53 276 -171 l 325 -171 l 314 -250 l 92 -250 z"},"@":{"x_min":0,"x_max":990,"ha":990,"o":"m 367 188 q 360 139 388 106 q 416 72 468 72 q 494 72 516 81 q 539 90 557 106 q 575 121 586 142 q 598 164 601 188 q 609 238 581 270 q 553 303 501 303 q 475 303 452 294 q 430 286 412 270 q 394 255 382 234 q 371 213 367 188 z m 909 188 q 898 135 872 100 q 847 64 816 42 q 785 19 752 10 q 718 0 691 0 l 585 0 l 588 20 q 589 25 590 30 q 590 35 591 40 q 589 37 579 29 q 569 21 552 13 q 534 5 510 -2 q 486 -9 457 -9 q 415 -9 380 6 q 345 22 322 49 q 299 76 288 112 q 277 147 283 187 q 289 226 310 262 q 330 297 361 324 q 392 351 431 366 q 470 382 512 382 q 538 382 560 375 q 581 368 596 358 q 612 349 621 340 q 630 331 631 328 q 633 339 636 351 q 640 363 642 375 l 711 375 l 669 81 l 702 81 q 722 81 742 86 q 762 92 778 104 q 795 117 807 138 q 819 158 825 188 q 835 259 818 321 q 800 383 760 430 q 721 476 664 502 q 606 529 536 529 q 465 529 400 502 q 334 476 282 430 q 229 383 194 321 q 158 259 148 188 q 138 117 156 56 q 174 -6 214 -52 q 254 -98 312 -124 q 370 -151 441 -151 q 500 -151 555 -134 q 610 -116 659 -85 q 670 -100 680 -114 q 690 -129 701 -144 q 673 -166 640 -182 q 606 -199 570 -210 q 534 -221 498 -226 q 462 -232 429 -232 q 341 -232 268 -199 q 196 -166 146 -109 q 97 -52 75 25 q 53 102 65 189 q 77 276 121 353 q 165 430 230 487 q 296 544 378 577 q 460 610 548 610 q 635 610 707 577 q 779 544 828 487 q 877 430 899 353 q 921 276 909 188 z"},".":{"x_min":0,"x_max":163,"ha":163,"o":"m 32 52 q 36 75 54 90 q 72 105 92 105 q 111 105 125 90 q 139 75 135 52 q 132 29 114 14 q 96 0 77 0 q 57 0 43 14 q 29 29 32 52 z"},"p":{"x_min":0,"x_max":548,"ha":548,"o":"m 8 -171 l 75 -171 l 141 296 l 65 296 l 78 375 l 221 375 q 218 352 218 328 q 219 331 231 340 q 243 350 262 360 q 280 369 304 376 q 327 384 353 384 q 395 384 430 368 q 464 353 488 326 q 511 299 522 264 q 532 228 527 188 q 521 148 500 112 q 480 76 449 49 q 418 22 379 6 q 340 -9 298 -9 q 270 -9 248 -3 q 227 3 212 11 q 197 19 188 26 q 180 34 178 38 q 180 33 182 28 q 183 24 185 19 l 158 -171 l 230 -171 l 220 -250 l -1 -250 z m 443 188 q 450 238 422 270 q 394 303 342 303 q 316 303 294 294 q 271 286 253 270 q 235 255 224 234 q 212 213 209 188 q 205 164 210 142 q 216 121 230 106 q 243 90 263 81 q 283 72 309 72 q 335 72 358 81 q 380 90 398 106 q 416 121 428 142 q 439 164 443 188 z"},"X":{"x_min":0,"x_max":694,"ha":694,"o":"m 133 700 l 375 700 l 364 621 l 309 621 q 331 577 353 534 q 375 492 397 449 l 406 422 l 423 449 l 559 621 l 504 621 l 515 700 l 757 700 l 746 621 l 660 621 q 606 553 554 486 q 501 418 447 351 q 482 282 517 215 q 552 148 587 79 l 670 79 l 659 0 l 417 0 l 428 79 l 483 79 l 392 258 q 389 265 386 272 q 384 279 382 286 l 365 258 q 329 213 294 168 q 259 124 224 79 l 288 79 l 277 0 l 35 0 l 46 79 l 121 79 l 342 357 l 207 621 l 122 621 z"},"*":{"x_min":0,"x_max":335,"ha":335,"o":"m 249 575 q 264 566 278 557 q 293 548 307 539 q 294 521 281 502 q 268 484 255 466 q 241 475 226 484 q 212 494 198 503 q 196 486 193 468 q 190 451 187 434 l 107 434 l 117 504 q 101 495 84 486 q 68 478 51 469 q 43 487 36 506 q 28 524 20 542 q 37 550 53 559 q 69 568 86 576 q 72 585 58 594 q 45 604 31 613 l 79 682 q 94 673 108 664 q 123 654 137 645 l 148 720 l 232 720 l 220 645 l 289 681 q 297 664 304 646 q 312 629 319 612 q 302 603 284 594 q 267 584 249 575 z"},"Y":{"x_min":0,"x_max":789,"ha":789,"o":"m 288 79 l 355 79 l 381 270 q 341 358 302 446 q 262 533 223 621 l 122 621 l 133 700 l 375 700 l 364 621 l 324 621 q 352 560 380 499 q 407 438 435 377 l 442 346 l 443 346 l 459 377 l 638 621 l 599 621 l 610 700 l 852 700 l 841 621 l 740 621 q 675 533 612 445 q 548 357 483 269 l 457 79 l 530 79 l 519 0 l 277 0 z"},"c":{"x_min":0,"x_max":397,"ha":397,"o":"m 366 34 q 337 14 304 2 q 271 -9 235 -9 q 193 -9 159 6 q 125 22 102 49 q 78 76 67 112 q 56 147 62 188 q 68 228 88 264 q 109 300 140 326 q 171 353 210 368 q 248 384 290 384 q 327 384 358 372 q 388 361 411 341 l 394 225 l 320 225 l 330 292 q 306 303 278 303 q 252 303 230 294 q 207 286 189 270 q 171 255 160 234 q 148 213 145 188 q 138 139 166 106 q 194 72 246 72 q 290 72 324 97 z"},"!":{"x_min":0,"x_max":201,"ha":201,"o":"m 47 0 q 27 0 14 15 q 0 30 2 53 q 5 76 24 90 q 42 105 62 105 q 81 105 94 90 q 108 76 105 53 q 102 30 84 15 q 66 0 47 0 z m 110 750 l 193 750 l 111 166 l 28 166 z"},"/":{"x_min":0,"x_max":380,"ha":380,"o":"m -36 -19 q 61 171 156 358 q 251 546 348 736 l 432 736 q 335 546 240 358 q 144 171 47 -19 z"},"[":{"x_min":0,"x_max":338,"ha":338,"o":"m 20 -149 l 145 746 l 337 746 l 326 665 l 217 665 l 114 -68 l 223 -68 l 212 -149 z"},"6":{"x_min":0,"x_max":520,"ha":520,"o":"m 119 209 q 115 181 122 156 q 128 132 144 114 q 159 95 182 84 q 204 73 231 73 q 259 73 285 84 q 311 95 332 114 q 353 132 368 156 q 382 181 386 209 q 390 237 382 262 q 375 286 359 304 q 343 322 320 332 q 297 343 269 343 q 242 343 216 332 q 191 322 170 304 q 150 286 136 262 q 123 237 119 209 z m 31 197 q 41 269 80 332 q 120 394 176 448 q 231 502 296 549 q 362 596 424 637 q 435 621 446 605 q 456 589 467 573 q 396 530 346 492 q 295 455 259 423 q 264 423 270 424 q 275 424 280 424 q 325 424 362 408 q 400 391 426 362 q 451 332 463 293 q 475 254 469 209 q 463 164 440 124 q 416 85 382 56 q 348 26 306 9 q 264 -8 219 -8 q 176 -8 140 8 q 103 24 78 52 q 52 79 40 116 q 27 154 31 197 z"},"r":{"x_min":0,"x_max":370,"ha":370,"o":"m 46 79 l 122 79 l 152 296 l 86 296 l 97 375 l 236 375 l 235 366 q 233 342 232 322 q 232 303 230 279 q 245 304 266 324 q 288 343 310 356 q 332 370 352 377 q 373 384 388 384 l 371 302 q 341 302 314 293 q 288 284 268 268 q 248 252 236 230 q 223 208 219 182 l 205 79 l 268 79 l 257 0 l 35 0 z"},"2":{"x_min":0,"x_max":519,"ha":519,"o":"m 218 81 l 382 81 l 395 174 l 474 174 l 449 0 l 6 0 q 76 62 142 120 q 209 179 262 234 q 314 288 348 340 q 383 391 390 438 q 395 475 386 501 q 378 527 362 544 q 346 561 326 569 q 305 577 287 577 q 249 577 223 564 q 197 551 180 532 q 164 513 156 492 q 147 471 145 455 q 136 391 170 351 l 112 300 q 97 311 86 330 q 75 348 68 370 q 62 391 60 414 q 58 436 61 455 q 67 495 86 532 q 104 569 135 597 q 166 625 207 642 q 248 658 299 658 q 345 658 380 641 q 416 624 439 596 q 462 567 472 530 q 482 492 476 450 q 469 400 445 354 q 421 307 386 261 q 351 215 308 170 q 264 126 218 81 z"},"{":{"x_min":0,"x_max":320,"ha":320,"o":"m 87 256 l 99 337 q 123 338 140 352 q 158 365 170 385 q 181 405 188 428 q 194 452 197 472 l 219 628 q 225 674 238 698 q 251 723 268 734 q 286 744 308 745 q 329 746 353 746 l 416 746 l 405 665 l 361 665 q 346 665 335 661 q 324 657 316 646 q 309 634 304 614 q 298 594 294 562 l 276 433 q 272 402 262 380 q 253 357 241 341 q 229 325 216 314 q 203 304 192 298 q 201 292 211 282 q 221 271 228 254 q 236 238 239 216 q 242 194 238 164 l 220 35 q 215 3 215 -18 q 215 -38 220 -49 q 224 -60 234 -64 q 243 -68 258 -68 l 302 -68 l 290 -149 l 227 -149 q 204 -149 183 -148 q 162 -147 147 -136 q 132 -126 126 -102 q 120 -78 126 -31 l 147 121 q 150 141 150 164 q 150 188 144 208 q 138 228 124 242 q 111 255 87 256 z"},"9":{"x_min":0,"x_max":525,"ha":525,"o":"m 390 419 q 394 447 388 472 q 381 496 366 514 q 350 533 328 544 q 305 555 278 555 q 250 555 224 544 q 198 533 177 514 q 156 496 142 472 q 127 447 123 419 q 119 391 126 366 q 134 342 150 324 q 166 306 189 296 q 212 285 240 285 q 267 285 292 296 q 318 306 338 324 q 359 342 372 366 q 386 391 390 419 z m 476 419 q 467 351 427 290 q 387 229 330 176 q 274 122 209 76 q 144 30 85 -9 q 74 7 64 23 q 53 39 42 55 q 113 98 164 136 q 214 173 250 205 q 245 204 240 204 q 234 204 229 204 q 184 204 146 220 q 109 237 84 266 q 58 296 46 335 q 34 374 40 419 q 46 464 70 504 q 93 543 127 572 q 161 602 203 619 q 245 636 290 636 q 335 636 372 618 q 409 601 434 572 q 459 542 470 502 q 482 463 476 419 z"}," ":{"x_min":0,"x_max":300,"ha":300,"o":""},"I":{"x_min":0,"x_max":312,"ha":312,"o":"m 46 79 l 125 79 l 201 621 l 122 621 l 133 700 l 375 700 l 364 621 l 284 621 l 208 79 l 288 79 l 277 0 l 35 0 z"},"H":{"x_min":0,"x_max":772,"ha":772,"o":"m 593 700 l 835 700 l 824 621 l 745 621 l 669 79 l 748 79 l 737 0 l 495 0 l 506 79 l 586 79 l 618 313 l 240 313 l 208 79 l 288 79 l 277 0 l 35 0 l 46 79 l 125 79 l 201 621 l 122 621 l 133 700 l 375 700 l 364 621 l 284 621 l 252 392 l 630 392 l 662 621 l 582 621 z"},"4":{"x_min":0,"x_max":529,"ha":529,"o":"m 208 79 l 283 79 l 298 183 l 16 183 l 449 658 l 393 264 l 490 264 l 479 183 l 382 183 l 367 79 l 450 79 l 439 0 l 197 0 z m 330 413 l 195 264 l 309 264 z"},"~":{"x_min":0,"x_max":489,"ha":489,"o":"m 275 481 q 262 497 252 502 q 241 507 227 507 q 213 507 194 498 q 175 490 167 461 q 156 462 145 462 q 134 463 123 464 q 127 484 138 500 q 149 517 164 528 q 178 540 194 546 q 211 552 226 552 q 249 552 266 543 q 284 534 298 519 q 311 503 322 498 q 333 493 347 493 q 354 493 362 495 q 371 497 380 502 q 388 507 396 516 q 403 525 406 539 l 451 536 q 447 516 436 500 q 425 483 410 472 q 396 461 380 455 q 363 449 348 449 q 325 449 307 458 q 289 467 275 481 z"},"D":{"x_min":0,"x_max":632,"ha":632,"o":"m 46 80 l 93 80 l 169 621 l 122 621 l 133 700 l 343 700 q 415 700 476 676 q 536 651 578 605 q 619 559 638 494 q 657 430 646 349 q 637 290 608 228 q 579 166 526 116 q 473 65 395 32 q 317 0 211 0 l 35 0 z m 252 621 l 176 80 l 246 80 q 305 80 358 99 q 412 118 454 154 q 497 189 526 238 q 554 288 563 350 q 572 412 558 462 q 543 512 510 548 q 477 583 429 602 q 381 621 322 621 z"},"^":{"x_min":0,"x_max":470,"ha":470,"o":"m 244 660 q 268 615 292 570 q 315 524 339 479 l 280 479 l 229 551 q 212 533 194 515 q 175 497 158 479 l 99 479 q 135 524 172 570 q 208 615 244 660 z"},"0":{"x_min":0,"x_max":616,"ha":616,"o":"m 37 327 q 48 403 78 464 q 107 526 150 569 q 192 612 244 635 q 297 658 353 658 q 409 658 454 634 q 500 610 530 566 q 560 523 572 461 q 583 399 572 323 q 561 247 530 186 q 498 125 454 82 q 410 38 358 15 q 307 -8 256 -8 q 205 -8 160 16 q 115 40 84 84 q 53 128 40 190 q 26 251 37 327 z m 121 326 q 113 273 121 227 q 129 181 149 147 q 169 113 199 93 q 229 73 267 73 q 304 73 340 92 q 377 111 408 145 q 438 179 459 225 q 480 271 488 324 q 494 360 491 404 q 488 448 472 486 q 456 525 424 551 q 393 577 342 577 q 291 577 252 552 q 213 526 186 488 q 158 450 142 406 q 126 362 121 326 z"},"F":{"x_min":0,"x_max":557,"ha":557,"o":"m 46 79 l 102 79 l 178 621 l 122 621 l 133 700 l 620 700 l 598 546 l 519 546 l 530 621 l 261 621 l 229 392 l 538 392 l 526 313 l 217 313 l 185 79 l 288 79 l 277 0 l 35 0 z"},"`":{"x_min":0,"x_max":200,"ha":200,"o":"m 51 612 q 65 579 77 546 q 89 512 103 479 l 44 479 q 24 512 6 546 q -11 579 -31 612 z"},"k":{"x_min":0,"x_max":527,"ha":527,"o":"m 302 79 l 313 79 q 287 119 265 160 l 210 114 l 205 79 l 268 79 l 257 0 l 35 0 l 46 79 l 122 79 l 205 671 l 139 671 l 150 750 l 299 750 l 223 211 l 326 296 l 289 296 l 300 375 l 501 375 l 490 296 l 428 296 q 403 276 379 255 q 355 234 331 214 q 350 180 370 146 q 390 113 410 79 l 503 79 l 492 0 l 291 0 z"},"u":{"x_min":0,"x_max":570,"ha":570,"o":"m 88 375 l 237 375 l 205 141 q 203 114 218 94 q 232 75 270 73 q 296 73 321 82 q 346 91 366 107 q 386 123 400 145 q 414 167 418 193 l 432 296 l 366 296 l 377 375 l 526 375 l 484 70 l 546 70 l 536 0 l 391 0 l 398 51 l 407 96 q 380 48 332 20 q 284 -9 230 -9 q 171 -9 141 22 q 111 53 116 103 l 143 296 l 77 296 z"},"]":{"x_min":0,"x_max":342,"ha":342,"o":"m 313 746 l 188 -149 l -3 -149 l 7 -68 l 116 -68 l 219 665 l 110 665 l 121 746 z"},"U":{"x_min":0,"x_max":729,"ha":729,"o":"m 134 700 l 376 700 l 365 621 l 283 621 l 228 229 q 217 152 258 112 q 300 71 375 71 q 412 71 444 82 q 477 92 502 112 q 528 132 544 162 q 561 191 567 229 l 622 621 l 540 621 l 551 700 l 793 700 l 782 621 l 705 621 l 649 226 q 641 169 616 125 q 590 81 552 52 q 514 22 466 7 q 418 -8 364 -8 q 310 -8 266 7 q 222 22 192 52 q 162 81 149 125 q 136 169 144 226 l 200 621 l 123 621 z"},"o":{"x_min":0,"x_max":471,"ha":471,"o":"m 62 188 q 68 228 88 264 q 109 300 140 326 q 171 353 210 368 q 248 384 290 384 q 332 384 366 368 q 401 353 424 326 q 448 300 458 264 q 469 228 463 188 q 457 147 436 112 q 416 76 386 49 q 355 22 316 6 q 277 -9 235 -9 q 193 -9 159 6 q 125 22 102 49 q 78 76 67 112 q 56 147 62 188 z m 145 187 q 142 163 148 142 q 154 121 168 106 q 181 90 200 81 q 220 72 244 72 q 268 72 290 81 q 313 90 331 106 q 349 121 361 142 q 373 163 376 187 q 379 211 373 232 q 367 253 354 269 q 340 285 320 294 q 300 303 276 303 q 252 303 230 294 q 208 285 190 269 q 172 253 160 232 q 148 211 145 187 z"},"N":{"x_min":0,"x_max":855,"ha":855,"o":"m 50 79 l 137 79 l 213 621 l 126 621 l 137 700 l 253 700 l 663 177 l 678 151 l 680 183 l 741 621 l 669 621 l 680 700 l 922 700 l 911 621 l 824 621 l 733 -32 l 297 512 l 282 538 l 280 506 l 220 79 l 292 79 l 281 0 l 39 0 z"},"+":{"x_min":0,"x_max":543,"ha":543,"o":"m 198 51 l 218 190 l 80 190 l 91 271 l 229 271 l 249 411 l 333 411 l 313 271 l 451 271 l 440 190 l 302 190 l 282 51 z"},"G":{"x_min":0,"x_max":609,"ha":609,"o":"m 565 298 l 529 40 q 486 17 439 4 q 392 -10 341 -10 q 267 -10 206 18 q 145 46 103 94 q 61 143 42 208 q 23 273 33 347 q 43 421 80 486 q 118 552 174 600 q 229 649 298 678 q 367 706 441 706 q 492 706 536 693 q 579 680 617 656 l 561 589 q 533 607 500 617 q 468 627 430 627 q 373 627 320 605 q 267 583 224 544 q 182 506 153 455 q 124 404 116 347 q 108 290 122 239 q 137 188 169 150 q 201 113 248 91 q 294 69 351 69 q 403 69 453 87 l 471 219 l 368 219 l 379 298 z"},"q":{"x_min":0,"x_max":551,"ha":551,"o":"m 288 -171 l 364 -171 l 390 19 q 392 24 396 28 q 399 33 402 38 q 399 34 388 26 q 376 19 359 11 q 342 3 319 -3 q 296 -9 269 -9 q 227 -9 192 6 q 158 22 134 49 q 111 76 100 112 q 90 148 96 188 q 102 228 122 264 q 143 299 174 326 q 205 353 244 368 q 283 384 325 384 q 351 384 372 376 q 394 369 410 360 q 425 350 434 340 q 443 331 444 328 q 446 339 449 351 q 452 363 454 375 l 603 375 l 592 296 l 512 296 l 447 -171 l 510 -171 l 499 -250 l 277 -250 z m 180 188 q 173 139 201 106 q 229 72 281 72 q 307 72 330 81 q 352 90 370 106 q 388 121 400 142 q 411 164 414 188 q 421 238 393 270 q 365 303 313 303 q 287 303 264 294 q 242 286 224 270 q 206 255 194 234 q 183 213 180 188 z"},"d":{"x_min":0,"x_max":547,"ha":547,"o":"m 367 20 q 368 25 368 30 q 368 35 369 40 q 367 37 357 29 q 347 21 330 12 q 313 4 289 -2 q 265 -9 236 -9 q 194 -9 159 6 q 124 22 101 49 q 78 76 67 112 q 56 148 62 188 q 68 228 88 264 q 109 299 140 326 q 171 353 210 368 q 249 384 291 384 q 316 384 338 377 q 359 370 375 361 q 391 352 400 343 q 409 334 410 331 q 409 339 408 346 q 406 354 405 362 l 448 671 l 382 671 l 393 750 l 542 750 l 448 79 l 524 79 l 513 0 l 364 0 z m 146 188 q 139 139 167 106 q 195 72 247 72 q 273 72 296 81 q 318 90 336 106 q 354 121 366 142 q 377 164 380 188 q 387 238 359 270 q 331 303 279 303 q 253 303 230 294 q 208 286 190 270 q 172 255 160 234 q 149 213 146 188 z"},"1":{"x_min":0,"x_max":290,"ha":290,"o":"m -11 79 l 67 79 l 136 569 l 68 569 l 79 650 l 231 650 l 151 79 l 230 79 l 219 0 l -22 0 z"},"5":{"x_min":0,"x_max":543,"ha":543,"o":"m 476 650 l 458 521 l 379 521 l 385 569 l 261 569 l 241 422 q 247 423 254 424 q 260 424 267 424 q 312 424 350 408 q 387 391 412 362 q 438 332 450 293 q 462 254 456 209 q 450 164 426 124 q 403 85 369 56 q 335 26 293 9 q 251 -8 206 -8 q 162 -8 126 8 q 90 24 65 53 l 134 109 q 149 92 170 82 q 192 73 218 73 q 246 73 272 84 q 298 95 319 114 q 340 132 354 156 q 369 181 373 209 q 377 237 370 262 q 362 286 346 304 q 330 322 307 332 q 284 343 256 343 q 221 343 190 332 q 160 320 138 292 l 189 650 z"}}}
